<svg class="svg-icon" style="width: 1em;height: 1em;vertical-align: middle;fill: currentColor;overflow: hidden;" viewBox="0 0 1024 1024" version="1.1" xmlns="http://www.w3.org/2000/svg"><path d="M0 0m320 0l384 0q320 0 320 320l0 384q0 320-320 320l-384 0q-320 0-320-320l0-384q0-320 320-320Z" fill="#4D4D4D" /><path d="M760 592.72c-71.36 14.72-76.24-9.44-76.24-9.44 75.36-112 106.88-253.84 80-288.56-74.56-94.72-203.04-49.92-205.12-48.8h-0.72a248 248 0 0 0-47.6-4.96A117.76 117.76 0 0 0 434.88 264s-229.04-94.4-218.4 118.64c2.24 45.36 64.96 343.04 139.76 253.12 27.28-32.88 53.76-60.72 53.76-60.72a69.28 69.28 0 0 0 45.28 11.6l1.28-1.12a50.08 50.08 0 0 0 0.48 12.8c-19.28 21.52-13.6 25.36-52.08 33.28s-16 22.32-1.2 26.08c18.16 4.48 60.08 10.88 88.4-28.72l-1.12 4.48c7.52 6.08 12.88 39.36 11.92 69.52s-1.44 50.88 4.48 67.04 11.92 52.64 62.56 41.76c42.24-9.04 64-32.56 67.28-72 2.16-27.84 7.04-24 7.36-48.64l3.92-11.76c4.48-37.76 0.72-50 26.8-44.32l6.32 0.56a145.2 145.2 0 0 0 59.04-9.92c32-14.72 50.56-39.36 19.2-32.88z" fill="#4D4D4D" /><path d="M556.08 822.56c-42.16 0-55.44-33.28-60.96-46.96-8-20-9.68-97.68-8-161.44a8 8 0 0 1 8-8 8 8 0 0 1 8 8c-2.08 73.52 0.88 140.16 6.8 155.04 9.28 23.12 23.28 43.44 63.04 34.88 37.76-8 51.92-22.4 58.16-58.88 4.96-28.56 14.32-106.96 15.52-123.12a8 8 0 0 1 16 1.2c-1.2 16-10.72 96-16 124.64-7.36 42.96-26.56 62.4-70.56 72a98.56 98.56 0 0 1-20 2.64zM327.2 659.36a34.72 34.72 0 0 1-10.8-1.76C250.96 635.76 209.36 410.08 208 381.84c-2.96-60.32 12.56-103.04 46.24-126.88 66.56-47.2 178.72-2.24 183.44 0a8 8 0 0 1-6.08 14.88c-1.12 0-108.72-43.6-168-1.44-28.88 20.48-42.08 58.48-39.36 112.96 2 40 46.08 244.16 97.52 261.28 3.36 1.12 13.52 4.56 28-12.88 27.2-32.72 52.16-58.88 52.48-59.12a8 8 0 0 1 11.6 11.12s-25.12 25.68-51.92 58.24c-12.72 14.88-24.8 19.36-34.72 19.36z m355.92-68.88a8 8 0 0 1-6.64-12.56C752.72 464.8 779.44 328 756.56 298.8c-67.52-86.32-184.48-50-194.56-46.64l-1.2 0.48a8.4 8.4 0 0 1-10.08-4.24 8 8 0 0 1 3.2-10.24l2.08-0.72h1.04c20.8-6.88 140.56-40 212.24 51.76 32 41.28-8 192-79.36 298a8 8 0 0 1-6.8 3.28z" fill="#FFFFFF" /><path d="M687.04 642.8a66.32 66.32 0 0 1-31.6-6 16 16 0 0 1-8.64-12.8c-1.92-34.56 17.2-40 26.8-43.04a87.12 87.12 0 0 0-5.36-7.12 118.88 118.88 0 0 1-19.28-31.12c-0.96-2.24-3.92-7.52-7.28-13.6-18.32-32.88-56.48-101.28-32-136 11.36-16 34-22.56 67.36-18.96C667.44 344 620.88 250.08 509.68 248a107.44 107.44 0 0 0-81.28 30.4C382.48 325.12 384 409.12 384 410a8 8 0 0 1-16 0c0-3.76-1.84-91.76 48.96-143.04A122.48 122.48 0 0 1 509.92 232c135.2 2.24 183.44 130.64 185.04 147.84a8.96 8.96 0 0 1-6.96 10.96h-2.88c-32.72-5.2-53.76-1.6-62.48 10.88C604.08 428.48 640 493.36 656 521.04c3.92 7.04 6.8 12.08 8 15.28a107.44 107.44 0 0 0 17.04 27.2 46.32 46.32 0 0 1 10.08 16.8c0.64 1.12 10.08 15.44 66.96 3.68 14.08-2.88 22.56-0.48 25.12 7.36 4.8 15.28-23.76 33.28-39.2 40.64a147.84 147.84 0 0 1-56.96 10.8z m-4.64-48c-1.6 0.64-3.04 1.04-4.08 1.36-8 2.32-16.72 4.72-15.44 26.72 4.64 6.32 49.52 6 73.92-5.28a96 96 0 0 0 27.28-18.24l-2.96 0.48c-36.16 7.52-61.68 6.48-75.92-2.88a28.4 28.4 0 0 1-2.8-2.32z m8.56-14.24a1.44 1.44 0 0 0 0-0.16zM429.28 667.84a116.32 116.32 0 0 1-27.92-3.84c-10-2.48-26.8-10-26.48-22.24 0-13.76 20.32-17.92 27.92-19.52 27.52-5.6 29.28-8 37.92-18.8 2.56-3.28 5.6-7.2 9.84-11.92a25.2 25.2 0 0 1 32-8 35.12 35.12 0 0 1 19.04 22.8 29.36 29.36 0 0 1-3.68 25.52 81.52 81.52 0 0 1-68.64 36zM392 642.64a38.08 38.08 0 0 0 13.12 6c24 6 57.12 6.4 80-25.6a14.08 14.08 0 0 0 1.28-11.76 19.6 19.6 0 0 0-9.68-12.4c-5.04-2.08-8-3.28-14.16 3.6-3.92 4.4-6.72 8-9.12 11.12-10.72 13.52-16 18.08-47.36 24.64a55.36 55.36 0 0 0-14.08 4.4z m64.48-45.52z" fill="#FFFFFF" /><path d="M455.28 604.8a8 8 0 0 1-8-6.8 25.36 25.36 0 0 1-0.4-4.24 80 80 0 0 1-56-25.2 91.12 91.12 0 0 1-24-76.4 361.28 361.28 0 0 0 1.84-72.96c0-4.08-0.4-7.2-0.4-9.04 0-13.92 41.36-32 65.28-34.16 29.52-3.12 48.96 10.08 54.8 37.04 16 72.88 1.28 105.12-9.36 128.64-1.92 4.32-3.76 8.48-5.28 12.56l-1.36 3.52c-5.6 15.04-10.48 28.08-8.96 37.76a8 8 0 0 1-6.72 9.2zM384 412.32v5.92a370.48 370.48 0 0 1-1.92 76.16 75.28 75.28 0 0 0 19.76 63.04 64.64 64.64 0 0 0 46.4 20.24 219.84 219.84 0 0 1 8-25.52l1.36-3.52c1.6-4.4 3.6-8.88 5.68-13.52 10.24-22.72 22.96-50.96 8-118.72a27.44 27.44 0 0 0-21.68-24c-22.64-5.04-58.08 12.88-65.6 19.92z" fill="#FFFFFF" /><path d="M433.68 408.88c-0.4 2.88 5.36 10.64 12.8 11.68a13.76 13.76 0 0 0 14.16-8c0.4-2.88-5.28-6.08-12.72-7.12s-13.84 0.48-14.24 3.36z" fill="#FFFFFF" /><path d="M448 423.36h-2.08a19.52 19.52 0 0 1-12.48-8 10.64 10.64 0 0 1-2.56-6.88 5.36 5.36 0 0 1 2.24-3.52 21.52 21.52 0 0 1 14.88-2.08c8 1.12 16 4.72 15.04 10.16a12.4 12.4 0 0 1-5.6 7.28 16.96 16.96 0 0 1-9.44 3.04z m-11.76-14a14.16 14.16 0 0 0 10.4 8.56 11.84 11.84 0 0 0 11.2-5.6 17.2 17.2 0 0 0-10.32-4.32 16.96 16.96 0 0 0-11.12 1.36zM660 403.04c0 2.88-5.36 10.56-12.8 11.6a13.68 13.68 0 0 1-14.16-8c0-2.96 5.28-6.08 12.72-7.12s13.84 0 14.24 3.36z" fill="#FFFFFF" /><path d="M645.52 416A14.96 14.96 0 0 1 632 406.96c-0.56-4.32 6.56-7.6 13.92-8.64a30.8 30.8 0 0 1 10.24 0c3.2 0.8 5.2 2.24 5.44 4.24a11.04 11.04 0 0 1-3.76 8 18.32 18.32 0 0 1-10.08 5.52z m4.88-15.44a30.24 30.24 0 0 0-4.48 0c-7.36 1.04-11.76 4-11.6 5.6a12.64 12.64 0 0 0 12.72 6.8 15.2 15.2 0 0 0 8.96-4.32 10 10 0 0 0 3.04-5.44c-0.56-1.28-3.68-2.56-8.64-2.56zM670.72 568.88a8 8 0 0 1-4.48-1.36 8 8 0 0 1-2.24-11.12c17.44-26.08 14.32-52.64 11.2-78.32a219.28 219.28 0 0 1-2.32-33.04A228.48 228.48 0 0 1 676 416a145.52 145.52 0 0 0 2.56-32 8 8 0 1 1 16-0.88 164.88 164.88 0 0 1-2.64 35.68 204.88 204.88 0 0 0-2.96 27.28 207.36 207.36 0 0 0 2.16 30.64c3.28 27.28 7.04 58.16-13.76 89.2a8 8 0 0 1-6.64 2.96z" fill="#FFFFFF" /></svg>